<?xml version="1.0" encoding="UTF-8"?>
<!DOCTYPE svg PUBLIC "-//W3C//DTD SVG 1.1//EN" "http://www.w3.org/Graphics/SVG/1.1/DTD/svg11.dtd">
<!-- Creator: CorelDRAW 2021.5 -->
<svg xmlns="http://www.w3.org/2000/svg" xml:space="preserve" width="21.9408mm" height="20.7155mm" version="1.1" style="shape-rendering:geometricPrecision; text-rendering:geometricPrecision; image-rendering:optimizeQuality; fill-rule:evenodd; clip-rule:evenodd"
viewBox="0 0 2180.03 2058.29"
 xmlns:xlink="http://www.w3.org/1999/xlink"
 xmlns:xodm="http://www.corel.com/coreldraw/odm/2003">
 <defs>
  <style type="text/css">
   <![CDATA[
    .str0 {stroke:#DE0000;stroke-width:19.87;stroke-miterlimit:22.9256}
    .fil0 {fill:#DE0000}
    .fil1 {fill:#DE0000}
   ]]>
  </style>
 </defs>
 <g id="Слой_x0020_1">
  <metadata id="CorelCorpID_0Corel-Layer"/>
  <g id="_2685273421760">
   <path class="fil0 str0" d="M1857.89 1917.56l-1535.74 0c-107.7,0 -172.92,-82.74 -184.09,-179.03 -5.62,-48.38 24.56,-104.02 43.08,-134.97 6.97,-11.64 9.42,-18.65 15.83,-30.58l144.9 -264.36c11.86,-22.1 21.37,-38.47 32.29,-60.53l129.42 -237.64c5.29,-10.73 8.6,-16.26 15.09,-27.1l384.37 -708.37c6.81,-12.18 10.07,-16.22 16.8,-29.6 72.76,-144.48 267.37,-139.23 337.56,-5.63l47.85 87.16c5.34,10.26 9.23,19.79 15.47,30.94l467.23 857.55c7.11,11.9 10.11,16.89 16.5,29.91 10.89,22.17 19.69,35.5 30.88,57.72l129.39 237.67c28.1,56.42 82.85,128.82 77.74,194.32 -7.97,102.17 -83.65,182.54 -184.57,182.54zm312.21 -211.01l0 53.42c-3.67,36.07 -14.97,74.48 -36.49,116.88 -62.24,122.61 -176.71,171.5 -313.69,171.5l-1459.79 0c-138.99,0 -252.54,-49.87 -315.09,-174.33 -32.45,-64.59 -35.09,-93.37 -35.09,-163.2 0,-50.55 21.61,-98.12 39.38,-133.61l379.69 -700.38c6.17,-11.5 9.91,-15.77 15.55,-26.66 9.93,-19.17 20.22,-36.05 29.5,-54.87l77.38 -142.01c5.63,-11.2 8.49,-17.56 14.6,-27.59l121.72 -224.25c6.37,-12.67 9.01,-15.18 15.47,-26.73 5.8,-10.39 8.36,-17.62 14.17,-28.01 28.02,-50.14 97.48,-183.53 126.58,-219.39 98.64,-121.49 262.61,-151.22 400.79,-77.45 39.01,20.83 66.29,47.07 93.23,79.75 23.03,27.94 87.01,147.63 110.6,193.18l440.21 808.64c6.6,13.35 10.07,17.41 16.85,29.56 5.81,10.39 8.37,17.62 14.18,28.01l168.72 308.03c39.41,73.4 74.34,138.2 81.54,209.51z"/>
   <path class="fil1" d="M1026.73 1082.19l0 -350.18c0,-102.9 126.56,-102.9 126.56,0l0 350.18c0,102.74 -126.56,102.75 -126.56,0zm-126.57 -383.94l0 409.24c0,146.2 210.29,264.9 342.82,102.34 9.21,-11.31 10.35,-15.34 17.28,-29.14 10.03,-19.98 19.61,-45.34 19.61,-73.2l0 -400.81c0,-69.73 -50.11,-134.59 -110.97,-163.26 -100.5,-47.34 -230.64,9.67 -260.41,116.74 -3.75,13.47 -8.33,22 -8.33,38.08z"/>
   <path class="fil1" d="M1090.02 1542.06c82.18,0 80.93,122.35 0,122.35 -80.93,0 -82.17,-122.35 0,-122.35zm-189.86 46.41c0,41.95 0.01,59.43 19.62,98.52 87.93,175.28 360.09,127.11 360.09,-94.3 0,-127.6 -168.76,-254.9 -319.44,-129.58 -26.21,21.8 -60.27,78.76 -60.27,125.37z"/>
  </g>
 </g>
</svg>
